<svg xmlns="http://www.w3.org/2000/svg" viewBox="0 0 400 300" width="406" height="306" class="illustration styles_illustrationTablet__1DWOa"><g id="_367_ceo_flatline" data-name="#367_ceo_flatline"><rect x="62.76" y="41.62" width="274.72" height="177.53" fill="#fff"></rect><path d="M337.48,220.65H62.76a1.5,1.5,0,0,1-1.5-1.5V41.62a1.5,1.5,0,0,1,1.5-1.5H337.48a1.5,1.5,0,0,1,1.5,1.5V219.15A1.5,1.5,0,0,1,337.48,220.65Zm-273.22-3H336V43.12H64.26Z" fill="#d1d3d4"></path><path d="M338,83.34H63.28a1.5,1.5,0,0,1,0-3H338a1.5,1.5,0,0,1,0,3Z" fill="#d1d3d4"></path><path d="M126,221.07a1.5,1.5,0,0,1-1.5-1.5V41.62a1.5,1.5,0,1,1,3,0v178A1.5,1.5,0,0,1,126,221.07Z" fill="#d1d3d4"></path><path d="M274.27,221.07a1.5,1.5,0,0,1-1.5-1.5V41.62a1.5,1.5,0,0,1,3,0v178A1.5,1.5,0,0,1,274.27,221.07Z" fill="#d1d3d4"></path><path d="M119.37,218.87a.5.5,0,0,1-.5-.5V150.24H96.24a.5.5,0,0,1-.5-.5v-26h-33a.5.5,0,0,1-.5-.5.51.51,0,0,1,.5-.5H96.24a.5.5,0,0,1,.5.5v26h22.63a.5.5,0,0,1,.5.5v68.63A.5.5,0,0,1,119.37,218.87Z" fill="#d1d3d4"></path><path d="M285.78,218.87a.5.5,0,0,1-.5-.5V99.06a.5.5,0,0,1,.5-.5H338a.5.5,0,0,1,.5.5.51.51,0,0,1-.5.5H286.28V218.37A.5.5,0,0,1,285.78,218.87Z" fill="#d1d3d4"></path><path d="M337.48,106.53h-51.7a.51.51,0,0,1-.5-.5.5.5,0,0,1,.5-.5h51.7a.5.5,0,0,1,.5.5A.5.5,0,0,1,337.48,106.53Z" fill="#d1d3d4"></path><path d="M110.92,150.24a.5.5,0,0,1-.5-.5v-77L96,52.71H62a.5.5,0,0,1,0-1H96.24a.49.49,0,0,1,.4.21l14.69,20.39a.52.52,0,0,1,.09.29v77.14A.5.5,0,0,1,110.92,150.24Z" fill="#d1d3d4"></path><path d="M285.78,123.77H110.92a.5.5,0,0,1-.5-.5.51.51,0,0,1,.5-.5H285.78a.5.5,0,0,1,.5.5A.5.5,0,0,1,285.78,123.77Z" fill="#d1d3d4"></path><path d="M311.88,99.56a.5.5,0,0,1-.5-.5V64.62a.5.5,0,0,1,.5-.5H338a.51.51,0,0,1,.5.5.5.5,0,0,1-.5.5H312.38V99.06A.51.51,0,0,1,311.88,99.56Z" fill="#d1d3d4"></path><path d="M304.57,132.09h-4.52a.5.5,0,0,1-.5-.5v-4.51a.5.5,0,0,1,.5-.5h4.52a.5.5,0,0,1,.5.5v4.51A.5.5,0,0,1,304.57,132.09Zm-4-1h3.52v-3.51h-3.52Z" fill="#d1d3d4"></path><path d="M321.27,144h-4.52a.51.51,0,0,1-.5-.5V139a.5.5,0,0,1,.5-.5h4.52a.5.5,0,0,1,.5.5v4.52A.51.51,0,0,1,321.27,144Zm-4-1h3.52v-3.52h-3.52Z" fill="#d1d3d4"></path><path d="M304,160.52h-4.51a.5.5,0,0,1-.5-.5V155.5a.5.5,0,0,1,.5-.5H304a.5.5,0,0,1,.5.5V160A.5.5,0,0,1,304,160.52Zm-4-1h3.51V156H300Z" fill="#d1d3d4"></path><path d="M323.52,180.51H319a.5.5,0,0,1-.5-.5V175.5a.5.5,0,0,1,.5-.5h4.51a.5.5,0,0,1,.5.5V180A.5.5,0,0,1,323.52,180.51Zm-4-1H323V176h-3.51Z" fill="#d1d3d4"></path><path d="M84.55,123.77a.5.5,0,0,1-.5-.5V52.21a.5.5,0,0,1,.5-.5.5.5,0,0,1,.5.5v71.06A.5.5,0,0,1,84.55,123.77Z" fill="#d1d3d4"></path><path d="M84.42,58.17H62.76a.5.5,0,0,1,0-1H84.42a.5.5,0,0,1,0,1Z" fill="#d1d3d4"></path><path d="M84.42,64.41H62.76a.5.5,0,0,1-.5-.5.51.51,0,0,1,.5-.5H84.42a.5.5,0,0,1,.5.5A.5.5,0,0,1,84.42,64.41Z" fill="#d1d3d4"></path><path d="M84.42,70.66H62.76a.51.51,0,0,1-.5-.5.5.5,0,0,1,.5-.5H84.42a.5.5,0,0,1,.5.5A.5.5,0,0,1,84.42,70.66Z" fill="#d1d3d4"></path><path d="M84.42,76.9H62.76a.51.51,0,0,1-.5-.5.5.5,0,0,1,.5-.5H84.42a.5.5,0,0,1,.5.5A.5.5,0,0,1,84.42,76.9Z" fill="#d1d3d4"></path><path d="M84.42,83.14H62.76a.5.5,0,0,1,0-1H84.42a.5.5,0,0,1,0,1Z" fill="#d1d3d4"></path><path d="M84.42,89.38H62.76a.5.5,0,0,1-.5-.5.51.51,0,0,1,.5-.5H84.42a.5.5,0,0,1,.5.5A.5.5,0,0,1,84.42,89.38Z" fill="#d1d3d4"></path><path d="M84.42,95.62H62.76a.5.5,0,0,1-.5-.5.51.51,0,0,1,.5-.5H84.42a.5.5,0,0,1,.5.5A.5.5,0,0,1,84.42,95.62Z" fill="#d1d3d4"></path><path d="M84.42,101.87H62.76a.51.51,0,0,1-.5-.5.5.5,0,0,1,.5-.5H84.42a.5.5,0,0,1,.5.5A.5.5,0,0,1,84.42,101.87Z" fill="#d1d3d4"></path><path d="M84.42,108.11H62.76a.51.51,0,0,1-.5-.5.5.5,0,0,1,.5-.5H84.42a.5.5,0,0,1,.5.5A.5.5,0,0,1,84.42,108.11Z" fill="#d1d3d4"></path><path d="M84.42,114.35H62.76a.5.5,0,1,1,0-1H84.42a.5.5,0,0,1,0,1Z" fill="#d1d3d4"></path><path d="M79,163.08H73.31a.5.5,0,0,1-.5-.5V154a.5.5,0,0,1,.5-.5H79a.5.5,0,0,1,.5.5v8.6A.51.51,0,0,1,79,163.08Zm-5.18-1h4.68v-7.6H73.81Z" fill="#d1d3d4"></path><path d="M106.4,175.62h-5.68a.5.5,0,0,1-.5-.5v-8.6a.5.5,0,0,1,.5-.5h5.68a.51.51,0,0,1,.5.5v8.6A.5.5,0,0,1,106.4,175.62Zm-5.18-1h4.68V167h-4.68Z" fill="#d1d3d4"></path><path d="M89.32,202.44H83.64a.5.5,0,0,1-.5-.5v-8.6a.5.5,0,0,1,.5-.5h5.68a.5.5,0,0,1,.5.5v8.6A.5.5,0,0,1,89.32,202.44Zm-5.18-1h4.68v-7.6H84.14Z" fill="#d1d3d4"></path><path d="M151.35,123.77a.5.5,0,0,1-.5-.5V100.75H117.18a.51.51,0,0,1-.5-.5V92.58h-5.76a.5.5,0,0,1-.5-.5.51.51,0,0,1,.5-.5h6.26a.5.5,0,0,1,.5.5v7.67h33.67a.5.5,0,0,1,.5.5v23A.5.5,0,0,1,151.35,123.77Z" fill="#d1d3d4"></path><path d="M318,65.12h-2.63a.5.5,0,0,1-.5-.5V48.78a.5.5,0,0,1,.5-.5H318a.5.5,0,0,1,.5.5V64.62A.5.5,0,0,1,318,65.12Zm-2.13-1h1.63V49.28h-1.63Z" fill="#d1d3d4"></path><path d="M155.51,49h89a13,13,0,0,1,13,12.22l9.11,153H133.43l9.11-153A13,13,0,0,1,155.51,49Z" fill="#231f20"></path><path d="M266.57,214.68H133.43a.48.48,0,0,1-.36-.16.47.47,0,0,1-.14-.37l9.11-153A13.52,13.52,0,0,1,155.51,48.5h89A13.52,13.52,0,0,1,258,61.19l9.11,153a.47.47,0,0,1-.14.37A.48.48,0,0,1,266.57,214.68Zm-132.61-1H266L257,61.25A12.5,12.5,0,0,0,244.49,49.5h-89A12.5,12.5,0,0,0,143,61.25Z" fill="#231f20"></path><path d="M96,171.67s-6.64-2.81-10.52-3.95-12.7-3.27-15-4.81-2.81,2.68-.94,4.08,11.43,5.35,11.9,5.55-6.82,1-9.36.47-7.36-2.61-9-2.48-1.73,2.48,0,4.35c0,0-.73,1.47,1.21,3.14s12.9,7.09,21.12,7.55a135.48,135.48,0,0,0,14.24,0C99.94,185.64,100.17,174.94,96,171.67Z" fill="#fff"></path><path d="M92.36,186.27c-2,0-4.32-.05-6.89-.2C77,185.59,66,180.07,64,178.4c-1.66-1.44-1.59-2.79-1.44-3.41a4,4,0,0,1-1-3.8A1.78,1.78,0,0,1,63.12,170c1.05-.08,3.11.6,5.29,1.34,1.38.46,2.81.93,3.82,1.15a32.75,32.75,0,0,0,7.55-.15c-4.29-1.82-9.16-4-10.5-5a3.78,3.78,0,0,1-.87-4.67,1.6,1.6,0,0,1,2.39-.22c1.69,1.14,7.4,2.7,11.56,3.83,1.26.35,2.39.66,3.27.92,3.87,1.13,10.5,3.93,10.57,3.95l.12.07c4.19,3.3,4.2,13.9,3.87,14.53a.53.53,0,0,1-.61.25s-.32,0-.81,0C97.53,186.16,95.3,186.27,92.36,186.27ZM63.33,171h-.12a.78.78,0,0,0-.71.52,3.2,3.2,0,0,0,1,3,.49.49,0,0,1,.08.56s-.51,1.17,1.08,2.54c2,1.72,12.9,7,20.83,7.44a127.18,127.18,0,0,0,13.2,0l.59,0c.14-2-.22-10.27-3.56-13-.69-.29-6.79-2.84-10.4-3.9l-3.25-.9c-4.47-1.22-10-2.74-11.86-4-.7-.47-.92-.16-1,0a2.79,2.79,0,0,0,.65,3.29c1.07.8,5.27,2.76,11.52,5.37l.28.12a.53.53,0,0,1,.3.63c-.3.95-8.56,1.08-10,.79a39.64,39.64,0,0,1-3.92-1.19A22.82,22.82,0,0,0,63.33,171Z" fill="#231f20"></path><path d="M82.42,184.84s-3.61-1.14-4.81-3.74-.54-3.61.4-3.28,4.21,3.94,6.41,4.08" fill="#fff"></path><path d="M82.42,185.34l-.15,0c-.16,0-3.84-1.24-5.12-4-.8-1.73-.91-3-.32-3.69a1.21,1.21,0,0,1,1.34-.27A8,8,0,0,1,80,178.64c1.28,1.07,3.21,2.68,4.5,2.76a.5.5,0,0,1,.47.53.49.49,0,0,1-.53.47c-1.62-.1-3.62-1.77-5.08-3a9.55,9.55,0,0,0-1.47-1.12c-.09,0-.21-.06-.27,0s-.27.94.49,2.59c1.09,2.37,4.48,3.46,4.51,3.47a.5.5,0,0,1-.15,1Z" fill="#231f20"></path><path d="M77,183.57s-4.57-2.94-6.17-4.88-1.61-3.75,0-4,4.4,4.32,6.24,4.77" fill="#fff"></path><path d="M77,184.07a.5.5,0,0,1-.27-.08c-.19-.12-4.65-3-6.29-5-1.12-1.36-1.56-2.7-1.19-3.68a1.83,1.83,0,0,1,1.49-1.15c1.11-.18,2.32,1.07,3.71,2.51,1,1,2,2.1,2.74,2.27a.5.5,0,1,1-.24,1c-1-.24-2.08-1.36-3.22-2.55-.94-1-2.22-2.31-2.82-2.21a.85.85,0,0,0-.73.51c-.17.46,0,1.44,1,2.69,1.54,1.86,6,4.75,6.06,4.78a.5.5,0,0,1,.15.69A.51.51,0,0,1,77,184.07Z" fill="#231f20"></path><path d="M63.16,174.88s-.13-1.14,1.61-1.14,4.84,2.64,4.84,2.64" fill="#fff"></path><path d="M69.61,176.88a.47.47,0,0,1-.32-.12c-.83-.7-3.25-2.52-4.52-2.52a1.35,1.35,0,0,0-1,.28.44.44,0,0,0-.13.31.51.51,0,0,1-.45.54.49.49,0,0,1-.54-.43,1.43,1.43,0,0,1,.36-1.08,2.23,2.23,0,0,1,1.74-.62c1.87,0,4.83,2.48,5.16,2.76a.51.51,0,0,1,.06.71A.52.52,0,0,1,69.61,176.88Z" fill="#231f20"></path><path d="M100.38,170.38H96.12s2.25,13.05,2.13,16.68c0,0,6.64.63,7,.5S104.26,173.62,100.38,170.38Z" fill="#231f20"></path><path d="M105,188.07c-.64,0-2.3-.09-6.8-.51a.5.5,0,0,1-.45-.52c.12-3.54-2.1-16.45-2.13-16.58a.52.52,0,0,1,.11-.4.5.5,0,0,1,.39-.18h4.26a.54.54,0,0,1,.32.11c3.93,3.28,5.33,16.33,5.09,17.58a.68.68,0,0,1-.37.47A1.57,1.57,0,0,1,105,188.07Zm-6.25-1.46c2.48.22,5.11.44,6.07.47,0-2.13-1.41-13.25-4.63-16.2H96.71C97.13,173.37,98.71,182.93,98.75,186.61Z" fill="#231f20"></path><path d="M148.23,118.4l-18.91,43.85s-20.8,7-29.32,6.77c0,0,3.51,11.78,2.51,19.54,0,0,35.33,2.85,40.34-1.08s19.66-28.4,19.66-28.4Z" fill="#ffbb00"></path><path d="M303.75,171.67s6.63-2.81,10.51-3.95,12.7-3.27,15-4.81,2.8,2.68.93,4.08-11.43,5.35-11.9,5.55,6.82,1,9.36.47,7.36-2.61,9-2.48,1.74,2.48,0,4.35c0,0,.74,1.47-1.2,3.14s-12.91,7.09-21.13,7.55a135.56,135.56,0,0,1-14.24,0C299.82,185.64,299.59,174.94,303.75,171.67Z" fill="#fff"></path><path d="M307.39,186.27c-2.94,0-5.16-.11-6.4-.17l-.91,0c-.23.08-.4,0-.51-.27-.34-.63-.33-11.23,3.87-14.53a.41.41,0,0,1,.11-.07c.07,0,6.71-2.82,10.57-3.95.88-.26,2-.57,3.27-.92,4.17-1.13,9.88-2.69,11.57-3.83a1.59,1.59,0,0,1,2.38.22,3.75,3.75,0,0,1-.87,4.67c-1.33,1-6.21,3.16-10.5,5a32.85,32.85,0,0,0,7.56.15c1-.22,2.43-.69,3.81-1.15,2.18-.73,4.24-1.41,5.29-1.34a1.77,1.77,0,0,1,1.55,1.16,4,4,0,0,1-1,3.8c.15.62.22,2-1.45,3.41-1.93,1.67-12.92,7.19-21.42,7.67C311.72,186.22,309.39,186.27,307.39,186.27Zm-6.95-1.19.6,0a127,127,0,0,0,13.19,0c7.93-.46,18.83-5.72,20.83-7.44,1.59-1.37,1.1-2.5,1.08-2.55a.53.53,0,0,1,.08-.55,3.18,3.18,0,0,0,1-3,.75.75,0,0,0-.7-.52,20.39,20.39,0,0,0-4.89,1.28,39.75,39.75,0,0,1-3.93,1.19c-1.39.29-9.66.16-10-.79a.55.55,0,0,1,.31-.63l.27-.12c6.26-2.61,10.46-4.57,11.52-5.37a2.79,2.79,0,0,0,.66-3.29c-.1-.13-.32-.44-1,0-1.83,1.23-7.4,2.75-11.87,4l-3.25.9c-3.6,1.06-9.71,3.61-10.39,3.9C300.67,174.81,300.31,183.13,300.44,185.08Z" fill="#231f20"></path><path d="M317.34,184.84s3.61-1.14,4.81-3.74.53-3.61-.4-3.28-4.21,3.94-6.42,4.08" fill="#fff"></path><path d="M317.34,185.34a.5.5,0,0,1-.15-1s3.41-1.1,4.51-3.47c.75-1.65.65-2.42.48-2.59s-.17,0-.26,0a9.09,9.09,0,0,0-1.47,1.12c-1.46,1.22-3.47,2.89-5.09,3a.5.5,0,0,1-.53-.47.5.5,0,0,1,.47-.53c1.3-.08,3.23-1.69,4.51-2.76a8,8,0,0,1,1.77-1.29,1.2,1.2,0,0,1,1.34.27c.59.65.48,2-.32,3.69-1.28,2.77-5,4-5.11,4Z" fill="#231f20"></path><path d="M322.8,183.57s4.56-2.94,6.17-4.88,1.6-3.75,0-4-4.4,4.32-6.25,4.77" fill="#fff"></path><path d="M322.8,184.07a.49.49,0,0,1-.42-.23.5.5,0,0,1,.15-.69s4.52-2.92,6.05-4.78c1-1.25,1.2-2.23,1-2.69a.84.84,0,0,0-.72-.51c-.6-.11-1.89,1.24-2.82,2.21-1.15,1.19-2.23,2.31-3.23,2.55a.49.49,0,0,1-.6-.36.5.5,0,0,1,.37-.61c.71-.17,1.79-1.29,2.73-2.27,1.39-1.44,2.6-2.69,3.71-2.51a1.83,1.83,0,0,1,1.5,1.15c.36,1-.07,2.32-1.2,3.68-1.63,2-6.09,4.86-6.28,5A.53.53,0,0,1,322.8,184.07Z" fill="#231f20"></path><path d="M336.59,174.88s.13-1.14-1.6-1.14-4.84,2.64-4.84,2.64" fill="#fff"></path><path d="M330.15,176.88a.49.49,0,0,1-.38-.17.5.5,0,0,1,.05-.71c.33-.28,3.3-2.76,5.17-2.76a2.25,2.25,0,0,1,1.74.62,1.53,1.53,0,0,1,.36,1.08.49.49,0,0,1-.56.43.5.5,0,0,1-.44-.54.42.42,0,0,0-.12-.31,1.38,1.38,0,0,0-1-.28c-1.28,0-3.7,1.82-4.52,2.52A.49.49,0,0,1,330.15,176.88Z" fill="#231f20"></path><path d="M299.38,170.38h4.26s-2.26,13.05-2.13,16.68c0,0-6.64.63-7,.5S295.5,173.62,299.38,170.38Z" fill="#231f20"></path><path d="M294.76,188.07a1.62,1.62,0,0,1-.43,0,.71.71,0,0,1-.37-.47c-.23-1.25,1.17-14.3,5.1-17.58a.52.52,0,0,1,.32-.11h4.26a.46.46,0,0,1,.38.18.46.46,0,0,1,.11.4c0,.13-2.24,13-2.12,16.58a.5.5,0,0,1-.45.52C297.05,188,295.4,188.07,294.76,188.07Zm4.81-17.19c-3.23,3-4.61,14.11-4.64,16.21.9,0,3.56-.25,6.07-.48.05-3.68,1.62-13.24,2.05-15.73Z" fill="#231f20"></path><path d="M251.52,118.4l18.92,43.85s20.8,7,29.31,6.77c0,0-3.5,11.78-2.5,19.54,0,0-35.33,2.85-40.34-1.08s-19.66-28.4-19.66-28.4Z" fill="#ffbb00"></path><path d="M183.47,103.07s-33.95,13.27-35.24,15.33,15.46,58.29,15.46,58.29,2.89,14.84,2.7,20.23-1.93,31.26-1.93,31.26h76.69s-3.85-34.15-3.47-38.77,4.82-24.28,4.82-24.28l9-46.73s-31-14.74-34.77-16.09S183.47,103.07,183.47,103.07Z" fill="#ffbb00"></path><path d="M204.56,227.57a.5.5,0,0,1-.5-.5V181.39a.5.5,0,0,1,.5-.5.5.5,0,0,1,.5.5v45.68A.5.5,0,0,1,204.56,227.57Z" fill="#231f20"></path><polygon points="187.78 95.12 216.11 95.21 215.61 106.03 195.61 106.03 185.89 101.38 187.78 95.12" fill="#231f20"></polygon><path d="M215.61,106.53h-20a.59.59,0,0,1-.22,0l-9.71-4.65a.5.5,0,0,1-.26-.6L187.31,95a.5.5,0,0,1,.48-.36h0l28.32.09a.48.48,0,0,1,.36.16.47.47,0,0,1,.14.37l-.5,10.81A.5.5,0,0,1,215.61,106.53Zm-19.89-1h19.42l.45-9.82-27.43-.09-1.66,5.49Z" fill="#231f20"></path><path d="M221.81,66.89c.26-.72.48-1.45.68-2.16,3.78-13.9-1.79-31.75-18.16-32.87-7.67-.53-14.55,4-18.29,10.48-4.69,8.18-3.4,18.63-2.52,27.63a2.92,2.92,0,0,0,.51,1.67c.93,1.09,2.76.37,4,.36,1.75,0,3.55.26,5.31.35,3,.16,6.07.26,9.11.21,4.37-.07,8.78.31,13.12-.39,1.85-.29,3.13-.3,4.35-1.79A12.24,12.24,0,0,0,221.81,66.89Z" fill="#fff"></path><path d="M209,73.1l-2.68,0c-1.29,0-2.57,0-3.84,0-2.66,0-5.56,0-9.15-.21-.68,0-1.36-.1-2.05-.16A29.3,29.3,0,0,0,188,72.5a6.48,6.48,0,0,0-1,.11c-1.11.16-2.49.36-3.35-.65A3.33,3.33,0,0,1,183,70l-.12-1.25C182,60,181.06,50,185.61,42.09c4.09-7.13,11.27-11.23,18.76-10.73a19.35,19.35,0,0,1,14.92,8.26c4.63,6.52,6.08,16.43,3.68,25.24-.23.83-.45,1.55-.7,2.2h0a12.38,12.38,0,0,1-2,3.64c-1.2,1.46-2.5,1.65-4,1.87l-.65.1A42.7,42.7,0,0,1,209,73.1Zm-5.37-1q1.35,0,2.7,0a53.3,53.3,0,0,0,9.18-.4l.67-.1c1.46-.22,2.42-.36,3.38-1.52a11.83,11.83,0,0,0,1.83-3.35h0c.23-.62.45-1.31.67-2.11,2.32-8.54.93-18.11-3.54-24.4a18.37,18.37,0,0,0-14.17-7.84c-7.1-.49-13.93,3.43-17.82,10.23-4.4,7.66-3.44,17.45-2.59,26.09l.12,1.24a2.6,2.6,0,0,0,.4,1.39c.5.59,1.49.45,2.44.31A7.9,7.9,0,0,1,188,71.5c1.11,0,2.24.09,3.33.19.68.06,1.35.12,2,.16,3.57.18,6.45.25,9.08.21Z" fill="#231f20"></path><path d="M189.75,68.57c-.86-6.91-12.21-9-11.93-.88a12,12,0,0,0,2.78,7.7,7.07,7.07,0,0,0,7.59,2.06" fill="#fff"></path><path d="M186,78.36a8,8,0,0,1-5.78-2.63,12.46,12.46,0,0,1-2.9-8c-.14-4,2.32-5.55,4.66-5.74a7.81,7.81,0,0,1,8.26,6.54.51.51,0,0,1-.44.56.5.5,0,0,1-.56-.43c-.45-3.65-4.15-5.92-7.18-5.67-1.17.09-3.88.74-3.75,4.71A11.59,11.59,0,0,0,181,75.06,6.52,6.52,0,0,0,188,77a.5.5,0,0,1,.38.92A6.17,6.17,0,0,1,186,78.36Z" fill="#231f20"></path><path d="M214.46,68.57c.86-6.91,12.21-9,11.92-.88a11.92,11.92,0,0,1-2.77,7.7A7.07,7.07,0,0,1,216,77.45" fill="#fff"></path><path d="M218.2,78.36a6.17,6.17,0,0,1-2.37-.45.5.5,0,0,1,.38-.92,6.52,6.52,0,0,0,7-1.93,11.52,11.52,0,0,0,2.64-7.39c.14-4-2.57-4.62-3.74-4.71-3-.25-6.73,2-7.18,5.67a.5.5,0,0,1-1-.13A7.82,7.82,0,0,1,222.21,62c2.35.19,4.81,1.79,4.67,5.74a12.51,12.51,0,0,1-2.9,8A8,8,0,0,1,218.2,78.36Z" fill="#231f20"></path><path d="M188.87,102.93s5.24,2.68,14.24,3,10.5-2.13,10.5-2.13L213.4,99l-.5-11.19-.47-10.47-20.55-.71-1,8.51-.3,2.76Z" fill="#fff"></path><path d="M204.67,106.45l-1.57,0c-9-.32-14.24-2.93-14.46-3a.51.51,0,0,1-.27-.5l3-26.33a.51.51,0,0,1,.52-.44l20.55.71a.5.5,0,0,1,.48.48l1.18,26.48a.45.45,0,0,1-.07.28C213.88,104.31,212.32,106.45,204.67,106.45Zm-15.26-3.82a38.12,38.12,0,0,0,13.72,2.79c7.38.25,9.54-1.38,10-1.81L212,77.8l-19.63-.69Z" fill="#231f20"></path><path d="M190.6,87.87A18.24,18.24,0,0,0,197.14,94c4.34,2.6,10.86,5.58,16.26,5l-.5-11.19a50.43,50.43,0,0,1-11.85-.34c-3.46-.42-7-.89-10.15-2.33Z" fill="#231f20"></path><path d="M211.86,99.56c-5.58,0-11.67-3.13-15-5.11a18.57,18.57,0,0,1-6.73-6.33.54.54,0,0,1-.06-.31l.3-2.76a.51.51,0,0,1,.25-.38.53.53,0,0,1,.46,0c3.15,1.46,6.79,1.9,10,2.3a49.59,49.59,0,0,0,11.74.33.54.54,0,0,1,.38.12.49.49,0,0,1,.17.35l.5,11.2a.51.51,0,0,1-.45.52A13.86,13.86,0,0,1,211.86,99.56Zm-20.75-11.8a17.75,17.75,0,0,0,6.29,5.83c3.42,2,9.89,5.36,15.48,4.93l-.45-10.19A51.26,51.26,0,0,1,201,87.94a37,37,0,0,1-9.67-2.1Z" fill="#231f20"></path><path d="M220.09,49.93l-.86,24.94A16.37,16.37,0,0,1,218.8,78a15.77,15.77,0,0,1-15.86,12L201.1,90a15.78,15.78,0,0,1-14.72-11.84,16,16,0,0,1-.48-4.45l.87-24.93s3.89,5.12,15,5S220.09,49.93,220.09,49.93Z" fill="#fff"></path><path d="M203.48,90.58h-.56l-1.84-.07A16.26,16.26,0,0,1,185.4,73.69l.87-24.93a.47.47,0,0,1,.34-.45.49.49,0,0,1,.55.17c0,.05,3.92,4.93,14.65,4.82,10.89-.09,18-3.77,18.05-3.81a.5.5,0,0,1,.5,0,.48.48,0,0,1,.23.44l-.86,24.94a17.15,17.15,0,0,1-.44,3.26A16.32,16.32,0,0,1,203.48,90.58ZM187.23,50l-.83,23.76a15.13,15.13,0,0,0,.47,4.31A15.33,15.33,0,0,0,201.12,89.5l1.84.07a15.25,15.25,0,0,0,15.35-11.65,14.54,14.54,0,0,0,.42-3.07l.83-24.11a44.92,44.92,0,0,1-17.74,3.56C193.26,54.37,188.92,51.48,187.23,50Z" fill="#231f20"></path><path d="M202.74,63.91s5.18,11.42,2.88,11.63-5.54-1.5-5.54-1.5" fill="#fff"></path><path d="M205.23,76.05a14.06,14.06,0,0,1-5.38-1.57.5.5,0,1,1,.46-.88s3.15,1.63,5.27,1.44c.67-.49-.88-5.59-3.3-10.92a.5.5,0,0,1,.25-.66.49.49,0,0,1,.66.25c.75,1.64,4.4,9.91,3.29,11.8a1.05,1.05,0,0,1-.81.53Z" fill="#231f20"></path><path d="M205.6,82.71a20.19,20.19,0,0,1-9.72-2.79.5.5,0,0,1,.48-.87c8.08,4.43,13.28,1.94,13.33,1.91a.51.51,0,0,1,.68.23.51.51,0,0,1-.23.67A10.69,10.69,0,0,1,205.6,82.71Z" fill="#231f20"></path><ellipse cx="196.04" cy="62.18" rx="1.08" ry="2.44" fill="#231f20"></ellipse><ellipse cx="210.49" cy="62.18" rx="1.08" ry="2.44" fill="#231f20"></ellipse><polygon points="184.92 100.75 204.18 181.71 218.73 100.75 203.12 105.92 184.92 100.75" fill="#231f20"></polygon><path d="M204.18,182.21a.51.51,0,0,1-.49-.38l-19.25-81a.49.49,0,0,1,.14-.47.46.46,0,0,1,.48-.12l18,5.12,15.47-5.12a.52.52,0,0,1,.49.1.5.5,0,0,1,.16.47l-14.55,81a.5.5,0,0,1-.48.41Zm-18.57-80.75,18.5,77.8,14-77.77-14.82,4.9a.48.48,0,0,1-.29,0Z" fill="#231f20"></path><polygon points="196.36 108.54 199.57 115.09 196.12 148.58 204.48 181.71 211.19 148.6 205.93 114.71 208.55 109.57 203.12 105.92 196.36 108.54" fill="#d1d3d4"></polygon><path d="M204.48,182.21a.49.49,0,0,1-.48-.38l-8.36-33.12a.37.37,0,0,1,0-.18l3.43-33.35-3.15-6.42a.51.51,0,0,1,0-.4.52.52,0,0,1,.29-.29l6.75-2.62a.5.5,0,0,1,.46,0l5.44,3.65a.52.52,0,0,1,.17.65l-2.55,5,5.24,33.73a1.09,1.09,0,0,1,0,.18L205,181.81a.49.49,0,0,1-.48.4Zm-7.85-33.66,7.8,30.91,6.25-30.87-5.25-33.81a.61.61,0,0,1,0-.3l2.43-4.74-4.86-3.26-6,2.33,3,6.06a.52.52,0,0,1,0,.27Z" fill="#231f20"></path><path d="M216.11,95.21c-.39,0-13.12,10.71-13.12,10.71l7.87,9.17,7.87-14.34Z" fill="#fff"></path><path d="M210.86,115.59a.52.52,0,0,1-.38-.17l-7.87-9.18a.52.52,0,0,1-.12-.36.52.52,0,0,1,.18-.34c12.87-10.83,13.21-10.83,13.44-10.83a.51.51,0,0,1,.45.29l2.62,5.53a.5.5,0,0,1,0,.46l-7.87,14.34a.49.49,0,0,1-.39.26ZM203.7,106l7.07,8.24,7.4-13.49-2.27-4.79C214.23,97.19,208.06,102.31,203.7,106Z" fill="#231f20"></path><path d="M187.79,95.12c.41,0,15.32,10.8,15.32,10.8L194,115.09l-9.1-14.34Z" fill="#fff"></path><path d="M194,115.59H194a.49.49,0,0,1-.37-.23L184.5,101a.5.5,0,0,1,0-.49l2.86-5.62a.5.5,0,0,1,.45-.28c.2,0,.57,0,15.62,10.89a.49.49,0,0,1,.2.37.51.51,0,0,1-.14.39l-9.1,9.17A.47.47,0,0,1,194,115.59Zm-8.52-14.87,8.61,13.57,8.24-8.31c-5.2-3.76-12.55-9-14.35-10.17Z" fill="#231f20"></path><path d="M184.92,100.75c-1.25-6,10.13,43.39,19.64,81.91,0,0-34.92-59.35-35.11-60.5s5-6,5-6l-4.24-1.9,3.82-6.91Z" fill="#ffbb00"></path><path d="M204.56,183.16a.51.51,0,0,1-.43-.24c-5.84-9.93-35-59.49-35.18-60.68s2.6-4,4.62-6L170,114.69a.53.53,0,0,1-.27-.3.51.51,0,0,1,0-.4l3.82-6.91a.66.66,0,0,1,.18-.19l10.59-6.39c-.07-.4,0-.66.35-.74s.38-.09.57.45h0a1.07,1.07,0,0,0,0,.23c.18.59.44,1.66.89,3.56.59,2.48,1.43,6.06,2.47,10.44C192.64,131,199.19,158.8,205,182.54a.5.5,0,0,1-.29.59A.63.63,0,0,1,204.56,183.16ZM170.92,114l3.74,1.67a.51.51,0,0,1,.14.83c-2.34,2.18-4.85,5-4.86,5.59.51,1.44,22.78,39.45,33.32,57.37-5.65-23-11.78-49-15.51-64.8-1.46-6.2-2.61-11.07-3.11-13.16l-10.23,6.18Z" fill="#231f20"></path><path d="M218.73,100.75c-.55-3.54-11.9,69.46-14.17,81.91,0,0,29.46-59.35,29.65-60.5s-5-6-5-6l4.24-1.9-3.83-6.91Z" fill="#ffbb00"></path><path d="M204.56,183.16a.44.44,0,0,1-.16,0,.49.49,0,0,1-.33-.57c.72-4,2.39-14.22,4.32-26.07,9.1-56,9.47-56.38,10.27-56.38a.5.5,0,0,1,.48.29l10.73,6.48a.47.47,0,0,1,.18.19l3.83,6.91a.51.51,0,0,1,0,.4.5.5,0,0,1-.27.3l-3.56,1.59c2,1.93,4.81,4.83,4.62,6S209.93,173,205,182.89A.51.51,0,0,1,204.56,183.16Zm14.32-81.74c-1.24,4.43-6.18,34.79-9.5,55.24-1.52,9.3-2.87,17.61-3.73,22.69C216,158.49,233.32,123.41,233.72,122c0-.59-2.53-3.36-4.86-5.54a.51.51,0,0,1,.13-.83l3.75-1.67-3.5-6.32Z" fill="#231f20"></path><path d="M238.88,185.35h-.1a.5.5,0,0,1-.39-.59c.07-.35,7.23-35,10.4-51.64a.5.5,0,1,1,1,.19c-3.18,16.64-10.34,51.3-10.41,51.65A.5.5,0,0,1,238.88,185.35Z" fill="#231f20"></path><path d="M171.91,213a.5.5,0,0,1-.49-.38.5.5,0,0,1,.37-.6l19.28-4.71a.51.51,0,0,1,.61.37.5.5,0,0,1-.37.6L172,213Z" fill="#231f20"></path><path d="M234.94,213.73h-.12L215.54,209a.49.49,0,0,1-.37-.6.5.5,0,0,1,.6-.37l19.29,4.71a.5.5,0,0,1-.12,1Z" fill="#231f20"></path><circle cx="200.74" cy="194.33" r="0.99" fill="#231f20"></circle><path d="M200.74,195.81a1.49,1.49,0,0,1,0-3,1.49,1.49,0,1,1,0,3Zm0-2a.48.48,0,0,0-.48.49.47.47,0,0,0,.48.48.48.48,0,0,0,.49-.48A.49.49,0,0,0,200.74,193.84Z" fill="#231f20"></path><circle cx="199.76" cy="217.39" r="0.99" fill="#231f20"></circle><path d="M199.76,218.87a1.49,1.49,0,1,1,1.48-1.48A1.49,1.49,0,0,1,199.76,218.87Zm0-2a.49.49,0,0,0-.49.49.49.49,0,0,0,1,0A.49.49,0,0,0,199.76,216.9Z" fill="#231f20"></path><path d="M165.66,188.94a.5.5,0,0,1-.5-.44c-1.85-16.94-17.31-60.82-17.47-61.26a.5.5,0,1,1,.94-.33c.16.44,15.66,44.43,17.52,61.48a.5.5,0,0,1-.44.55Z" fill="#231f20"></path><polygon points="97.34 202.18 302.66 202.18 335.61 249.73 64.39 249.73 97.34 202.18" fill="#fff"></polygon><path d="M335.61,250.23H64.39A.5.5,0,0,1,64,250a.51.51,0,0,1,0-.52l33-47.55a.51.51,0,0,1,.41-.21H302.66a.51.51,0,0,1,.41.21L336,249.44a.51.51,0,0,1,0,.52A.5.5,0,0,1,335.61,250.23Zm-270.26-1h269.3L302.4,202.68H97.6Z" fill="#231f20"></path><rect x="64.7" y="249.73" width="270.9" height="9.23" fill="#fff"></rect><path d="M335.61,259.46H64.7a.51.51,0,0,1-.5-.5v-9.23a.5.5,0,0,1,.5-.5H335.61a.5.5,0,0,1,.5.5V259A.51.51,0,0,1,335.61,259.46Zm-270.41-1H335.11v-8.23H65.2Z" fill="#231f20"></path><rect x="70.53" y="258.96" width="259.25" height="9.23" fill="#231f20"></rect><path d="M329.78,268.68H70.53a.5.5,0,0,1-.5-.5V259a.5.5,0,0,1,.5-.5H329.78a.5.5,0,0,1,.5.5v9.22A.5.5,0,0,1,329.78,268.68ZM71,267.68H329.28v-8.22H71Z" fill="#231f20"></path><polygon points="269.98 242.4 261.58 231.2 290.97 230.69 269.98 242.4" fill="#231f20"></polygon><path d="M270,242.9a.48.48,0,0,1-.4-.2l-8.4-11.2a.51.51,0,0,1-.05-.52.5.5,0,0,1,.44-.28l29.39-.51a.52.52,0,0,1,.49.37.5.5,0,0,1-.24.57l-21,11.7A.44.44,0,0,1,270,242.9Zm-7.41-11.21,7.55,10.06L289,231.23Z" fill="#231f20"></path><rect x="269.98" y="225.95" width="46.51" height="16.44" fill="#fff"></rect><path d="M316.49,242.9H270a.5.5,0,0,1-.5-.5V226a.5.5,0,0,1,.5-.5h46.51a.5.5,0,0,1,.5.5V242.4A.5.5,0,0,1,316.49,242.9Zm-46-1H316V226.45H270.48Z" fill="#231f20"></path><path d="M284.27,238.27a4.43,4.43,0,0,1-1.91.38,5.16,5.16,0,0,1-1.82-.32,4.33,4.33,0,0,1-1.44-.92,4.24,4.24,0,0,1-1-1.42,5,5,0,0,1,0-3.67,4.1,4.1,0,0,1,1-1.41,4.41,4.41,0,0,1,1.47-.9,5.1,5.1,0,0,1,1.81-.31,5.17,5.17,0,0,1,1.77.32,3.35,3.35,0,0,1,1.41.93l-1.39,1.39a1.85,1.85,0,0,0-.76-.59,2.54,2.54,0,0,0-1.95,0,2.23,2.23,0,0,0-.77.54,2.51,2.51,0,0,0-.51.83,2.86,2.86,0,0,0-.18,1,3,3,0,0,0,.18,1.06,2.51,2.51,0,0,0,.5.82,2.29,2.29,0,0,0,.76.54,2.58,2.58,0,0,0,1,.19,2.25,2.25,0,0,0,1.07-.24,2,2,0,0,0,.73-.63l1.43,1.35A4,4,0,0,1,284.27,238.27Z"></path><path d="M289.54,238.42v-8.49h5.71v1.73h-3.73v1.6h3.53v1.65h-3.53v1.76h4v1.75Z"></path><path d="M308.68,234.14a4.75,4.75,0,0,1-.35,1.84,4.07,4.07,0,0,1-1,1.43,4.26,4.26,0,0,1-1.47.92,5.23,5.23,0,0,1-1.84.32,5.28,5.28,0,0,1-1.85-.32,4.22,4.22,0,0,1-2.43-2.35,5.15,5.15,0,0,1,0-3.68,4.13,4.13,0,0,1,1-1.4,4.41,4.41,0,0,1,1.46-.89,5.28,5.28,0,0,1,1.85-.31,5.23,5.23,0,0,1,1.84.31,4.35,4.35,0,0,1,1.47.89,3.87,3.87,0,0,1,1,1.4A4.71,4.71,0,0,1,308.68,234.14Zm-2.2,0a2.9,2.9,0,0,0-.18-1,2.26,2.26,0,0,0-.5-.82,2.19,2.19,0,0,0-.76-.54,2.55,2.55,0,0,0-2,0,2.44,2.44,0,0,0-.77.54,2.24,2.24,0,0,0-.49.82,2.9,2.9,0,0,0-.18,1,3,3,0,0,0,.18,1.06,2.6,2.6,0,0,0,.5.84,2.29,2.29,0,0,0,.76.54,2.47,2.47,0,0,0,1,.2,2.42,2.42,0,0,0,1-.2,2.33,2.33,0,0,0,.77-.54,2.6,2.6,0,0,0,.5-.84A3,3,0,0,0,306.48,234.14Z"></path></g></svg>