<svg id="_230_designer_outline" data-name="#230_designer_outline" xmlns="http://www.w3.org/2000/svg" viewBox="0 0 400 300" width="406" height="306" class="illustration styles_illustrationTablet__1DWOa"><polygon points="109.19 183.28 98.67 212.9 128.38 212.9 109.19 183.28" fill="#ffbc0e"></polygon><path d="M128.38,213.9H98.67a1,1,0,0,1-.94-1.33L108.25,183a1,1,0,0,1,.82-.66,1,1,0,0,1,1,.45l19.19,29.62a1,1,0,0,1-.84,1.54Zm-28.29-2h26.45l-17.09-26.37Z" fill="#093f68"></path><path d="M218.75,79.54a15.47,15.47,0,0,0-7.45.13,36.21,36.21,0,0,0-20.44,15.66,10.47,10.47,0,0,1,3.45-10.17,16.24,16.24,0,0,0-13.77,8.08c-2.31,4.07-3.26,11.18-.17,15.17,2.72,3.5,7.69,2.86,10.49,5.65,1.74,1.74,2.36,8,3.28,10.41,2.34,6.29,5.11,12.41,7.66,18.62l55.56-10.34s-.93-13.81-3-25.1-9.92-25.44-23.18-19.78A11,11,0,0,0,228,84,21.34,21.34,0,0,0,218.75,79.54Z" fill="#725858"></path><path d="M201.8,144.09a1,1,0,0,1-.92-.62q-1.32-3.19-2.69-6.39c-1.69-4-3.45-8.12-5-12.26a29.32,29.32,0,0,1-.94-3.7c-.5-2.29-1.18-5.42-2.11-6.36a10.67,10.67,0,0,0-4.4-2.15c-2.11-.68-4.51-1.44-6.17-3.59-3.26-4.2-2.49-11.72.09-16.28a17.18,17.18,0,0,1,14.63-8.58h0a1,1,0,0,1,.94.66,1,1,0,0,1-.3,1.11,9.42,9.42,0,0,0-3.3,6.44A37.33,37.33,0,0,1,211,78.71a16.56,16.56,0,0,1,8-.15,22.35,22.35,0,0,1,9.64,4.68,13.53,13.53,0,0,1,3,3.36,13.5,13.5,0,0,1,11.53.55c6.85,3.67,10.77,12.9,12.15,20.32,2.09,11.22,3,25.07,3.05,25.21a1,1,0,0,1-.82,1L202,144.08Zm-10-57.69a15.15,15.15,0,0,0-10.39,7.33c-2.28,4-2.92,10.63-.25,14.07,1.28,1.65,3.19,2.26,5.2,2.9a12.16,12.16,0,0,1,5.2,2.65c1.35,1.35,2,4.4,2.65,7.35a29.44,29.44,0,0,0,.86,3.42c1.53,4.1,3.28,8.21,5,12.18.8,1.89,1.6,3.77,2.39,5.66l53.88-10c-.25-3.22-1.19-14.62-3-24.1-1.23-6.64-4.89-15.58-11.12-18.92-3.23-1.73-6.82-1.77-10.67-.12a1,1,0,0,1-.77,0,1,1,0,0,1-.55-.54,10,10,0,0,0-2.93-3.5,20.22,20.22,0,0,0-8.75-4.24h0a14.42,14.42,0,0,0-7,.11,35.15,35.15,0,0,0-19.86,15.23,1,1,0,0,1-1,.46,1,1,0,0,1-.81-.76A11.53,11.53,0,0,1,191.8,86.4Z" fill="#093f68"></path><ellipse cx="195.67" cy="141.21" rx="7.85" ry="8.77" transform="translate(-22.54 38.2) rotate(-10.55)" fill="#ffc9b0"></ellipse><path d="M196,151c-4.26,0-8.13-3.37-9-8.12h0c-1-5.3,2.12-10.34,6.91-11.23a8.38,8.38,0,0,1,6.73,1.7,10.5,10.5,0,0,1,2.51,13.51,8.37,8.37,0,0,1-5.66,4A7.39,7.39,0,0,1,196,151Zm-7.05-8.49c.78,4.21,4.44,7.07,8.16,6.39a6.41,6.41,0,0,0,4.31-3.08,8.52,8.52,0,0,0-2-10.89,6.45,6.45,0,0,0-5.14-1.32c-3.71.69-6.1,4.69-5.31,8.9Z" fill="#093f68"></path><path d="M227.9,164.29c16.94-3.15,28.22-26.88,25.11-43.55L249.27,123s-12.86-10.84-15.07-23.87c0,0-3.61,8.52-18.57,12.08-16.28,3.86-26.06,2.2-26.06,2.2L194,139.37C197.11,156,211,167.45,227.9,164.29Z" fill="#ffc9b0"></path><path d="M222.38,165.81a28.19,28.19,0,0,1-17.22-5.75A33.08,33.08,0,0,1,193,139.55l-4.44-26a1,1,0,0,1,1.15-1.15c.1,0,9.8,1.57,25.65-2.2,14.23-3.37,17.86-11.41,17.89-11.49a1,1,0,0,1,1.91.22c1.87,11,11.77,20.6,14.19,22.8l3.11-1.9a1,1,0,0,1,1.5.67c1.56,8.39-.36,18.67-5.14,27.51-5.1,9.43-12.67,15.71-20.77,17.22h0A31.66,31.66,0,0,1,222.38,165.81Zm5.52-1.52h0Zm-37.11-49.7L195,139.2a31.1,31.1,0,0,0,11.37,19.27,26.72,26.72,0,0,0,21.35,4.84h0c7.5-1.4,14.56-7.3,19.37-16.2,4.3-8,6.19-17.08,5.17-24.74l-2.47,1.5a1,1,0,0,1-1.17-.09c-.5-.42-11.62-9.91-14.87-22-2.15,2.91-7.23,7.89-17.89,10.42C202.88,115.28,194,114.91,190.79,114.59Z" fill="#093f68"></path><ellipse cx="220.23" cy="127.14" rx="2.84" ry="2.84" transform="translate(-19.55 42.46) rotate(-10.55)" fill="#093f68"></ellipse><circle cx="199.9" cy="129.77" r="2.84" fill="#093f68"></circle><path d="M211.22,139.43h-.41a1.61,1.61,0,0,1-1.25-.72c-1.17-1.68.18-6.68.82-8.76a1,1,0,1,1,1.91.59c-.9,2.95-1.4,6-1.15,6.9a12.61,12.61,0,0,0,4-.81,1,1,0,0,1,.7,1.87A15.58,15.58,0,0,1,211.22,139.43Zm0-1.87h0Z" fill="#093f68"></path><path d="M215.62,118.16a2,2,0,0,1-.34-4l13.36-2.31a2,2,0,1,1,.69,3.94L216,118.13A2.07,2.07,0,0,1,215.62,118.16Z" fill="#093f68"></path><path d="M192.16,121.68a2,2,0,0,1-.23-4l13.46-1.59a2,2,0,1,1,.47,4l-13.46,1.59Z" fill="#093f68"></path><path d="M247.34,124s6.42-6.48,11.61-.65,3.45,17.75-9.35,16.76" fill="#ffc9b0"></path><path d="M251.11,141.17c-.51,0-1,0-1.58-.07a1,1,0,1,1,.15-2c4.89.38,8.49-1.22,10.12-4.51A9.91,9.91,0,0,0,258.21,124a5.6,5.6,0,0,0-4.07-2.1c-3.17-.1-6.07,2.75-6.09,2.78a1,1,0,0,1-1.42,0,1,1,0,0,1,0-1.41c.14-.14,3.54-3.46,7.56-3.37a7.53,7.53,0,0,1,5.51,2.77,11.8,11.8,0,0,1,1.89,12.79C260.51,137.67,257.73,141.17,251.11,141.17Z" fill="#093f68"></path><path d="M216.08,134.37a3.93,3.93,0,0,1-3.88-3.45l-1-8.09a1,1,0,0,1,.2-.73,1,1,0,0,1,.67-.38L231,119.45a1,1,0,0,1,.74.21,1,1,0,0,1,.37.67l1,8.08a3.92,3.92,0,0,1-3.43,4.36l-13.05,1.57h0A3.87,3.87,0,0,1,216.08,134.37Zm.36-1h0Zm-3.11-9.76.86,7.09a1.92,1.92,0,0,0,2.13,1.68l13.05-1.57a1.93,1.93,0,0,0,1.68-2.14l-.85-7.09Z" fill="#093f68"></path><path d="M192.68,137.19a3.92,3.92,0,0,1-3.89-3.45l-1-8.09a1,1,0,0,1,.2-.73,1,1,0,0,1,.67-.38l18.85-2.27a1,1,0,0,1,1.11.87l1,8.09a3.92,3.92,0,0,1-3.42,4.36l-13,1.57h0Zm.35-1h0Zm-3.11-9.76.86,7.09a1.89,1.89,0,0,0,2.13,1.67L206,133.6a1.92,1.92,0,0,0,1.68-2.13l-.86-7.09Z" fill="#093f68"></path><path d="M231.44,124.54a1,1,0,0,1-.12-2L244.1,121a1,1,0,0,1,.23,2l-12.77,1.54Z" fill="#093f68"></path><path d="M215.22,149.43a19.92,19.92,0,0,1-6-1,1,1,0,1,1,.6-1.91,15.64,15.64,0,0,0,16.11-3.5,24.16,24.16,0,0,0,5.3-7.1,1,1,0,0,1,1.83.81C233,136.92,227.31,149.43,215.22,149.43Z" fill="#093f68"></path><line x1="212.75" y1="127.07" x2="208.16" y2="127.47" fill="#ffc9b0"></line><path d="M208.16,128.47a1,1,0,0,1-1-.91,1,1,0,0,1,.91-1.09l4.58-.39a1,1,0,0,1,1.08.9,1,1,0,0,1-.91,1.09l-4.58.4Z" fill="#093f68"></path><path d="M177.39,142.4H98a3.22,3.22,0,0,0-3,4.4l21.47,55.29H202.8l-22.41-57.66A3.23,3.23,0,0,0,177.39,142.4Z" fill="#ffbc0e"></path><path d="M202.79,203.09h-86.3a1,1,0,0,1-.93-.64L94.09,147.17A4.23,4.23,0,0,1,98,141.4h79.37a4.2,4.2,0,0,1,3.93,2.67l22.41,57.66a1,1,0,0,1-.11.92A1,1,0,0,1,202.79,203.09Zm-85.61-2h84.15L179.46,144.8a2.22,2.22,0,0,0-2.07-1.4H98a2.22,2.22,0,0,0-2.07,3Z" fill="#093f68"></path><polygon points="174.26 147.74 102.62 147.66 122.87 198.92 194.26 198.99 174.26 147.74" fill="#fff"></polygon><path d="M194.26,200h0l-71.39-.07a1,1,0,0,1-.93-.63L101.69,148a1,1,0,0,1,.1-.93,1,1,0,0,1,.83-.44h0l71.64.07a1,1,0,0,1,.93.64l20,51.26a1,1,0,0,1-.11.93A1,1,0,0,1,194.26,200Zm-70.71-2.07,69.25.07-19.22-49.26-69.49-.07Z" fill="#093f68"></path><path d="M166.4,162.54A5.6,5.6,0,1,1,172,157,5.63,5.63,0,0,1,166.4,162.54Zm0-9.19A3.6,3.6,0,1,0,170,157,3.63,3.63,0,0,0,166.4,153.35Z" fill="#dfeaef"></path><path d="M171,169.68a1,1,0,0,1-.47-.12l-25.82-14-18.44,13.88a1,1,0,0,1-1.21-1.6l19-14.27a1,1,0,0,1,1.08-.08l26.38,14.27a1,1,0,0,1-.48,1.88Z" fill="#dfeaef"></path><rect x="91.41" y="212.9" width="196.32" height="9.31" rx="3.53" fill="#093f68"></rect><path d="M284.2,223.21H95a4.54,4.54,0,0,1-4.54-4.53v-2.24A4.55,4.55,0,0,1,95,211.9H284.2a4.55,4.55,0,0,1,4.54,4.54v2.24A4.54,4.54,0,0,1,284.2,223.21ZM95,213.9a2.54,2.54,0,0,0-2.54,2.54v2.24A2.54,2.54,0,0,0,95,221.21H284.2a2.54,2.54,0,0,0,2.54-2.53v-2.24a2.54,2.54,0,0,0-2.54-2.54Z" fill="#093f68"></path><path d="M244.2,223.45a1,1,0,0,1-1-1V180.28a1,1,0,0,1,2,0v42.17A1,1,0,0,1,244.2,223.45Z" fill="#093f68"></path><polygon points="156.51 169.51 152.36 175.9 151.08 181.38 151.61 181.78 156.16 178.3 160.62 172.24 156.51 169.51" fill="#093f68"></polygon><path d="M151.61,182.78a1,1,0,0,1-.6-.2l-.53-.4a1,1,0,0,1-.37-1l1.27-5.48a1.15,1.15,0,0,1,.14-.32l4.15-6.39a1,1,0,0,1,.64-.44,1,1,0,0,1,.75.15l4.11,2.73a1,1,0,0,1,.25,1.43L157,178.9l-.2.2-4.56,3.48A1,1,0,0,1,151.61,182.78Zm1.68-6.48-.83,3.57,3-2.27,3.75-5.1-2.39-1.6Z" fill="#093f68"></path><path d="M174.88,169.33s.38-8.91-3-9.85-10.32-2.82-12.2,0-6.57,8.28-5.26,11.37,14.08,9.82,14.08,9.82l14.92,18,16.48-18.34Z" fill="#ffc9b0"></path><path d="M183.42,199.62h0a1,1,0,0,1-.74-.36l-14.8-17.8c-2.54-1.35-13-7.05-14.36-10.22s1.87-7.46,4.19-10.67c.44-.61.84-1.17,1.16-1.65,2.31-3.46,9.73-1.4,13.3-.4s3.79,7.64,3.75,10.17l24.4,10.67a1,1,0,0,1,.58.71,1,1,0,0,1-.23.88l-16.48,18.33A1,1,0,0,1,183.42,199.62ZM163.63,159c-1.42,0-2.6.27-3.12,1-.33.5-.75,1.08-1.2,1.71-1.81,2.5-4.83,6.69-4,8.72s8.82,6.78,13.63,9.32a1.21,1.21,0,0,1,.3.25l14.18,17.06,14.78-16.45-23.75-10.39a1,1,0,0,1-.6-1c.14-3.37-.47-8.35-2.27-8.85A34.26,34.26,0,0,0,163.63,159Z" fill="#093f68"></path><path d="M167.18,153.73,157.67,168s1.52,2.53,3.93,2.39L171,156S168.8,152.75,167.18,153.73Z" fill="#093f68"></path><path d="M161.4,171.35c-2.82,0-4.51-2.76-4.59-2.89a1,1,0,0,1,0-1.07l9.51-14.21a.81.81,0,0,1,.31-.3c2.36-1.44,4.93,2.18,5.21,2.59a1,1,0,0,1,0,1.12l-9.45,14.3a1,1,0,0,1-.77.45Zm-2.51-3.43a3.77,3.77,0,0,0,2.18,1.4l8.75-13.24c-.67-.83-1.52-1.53-2-1.53h0Z" fill="#093f68"></path><line x1="152.09" y1="180.28" x2="150.07" y2="183.28" fill="#093f68"></line><path d="M150.07,184.28a1,1,0,0,1-.56-.17,1,1,0,0,1-.27-1.38l2-3a1,1,0,1,1,1.66,1.12l-2,3A1,1,0,0,1,150.07,184.28Z" fill="#093f68"></path><path d="M212.75,166.42s1.58-7.32,5.13-9.47,25.14-5.24,29.46-1.54a14.83,14.83,0,0,1,4.69,9.41Z" fill="#ffbb00"></path><path d="M212.75,167.42a1,1,0,0,1-.77-.35,1,1,0,0,1-.21-.86c.07-.31,1.72-7.76,5.59-10.12s25.91-5.47,30.63-1.44a15.81,15.81,0,0,1,5,10.1,1,1,0,0,1-.25.73,1,1,0,0,1-.71.34l-39.28,1.6ZM238.5,154.7c-7.58,0-17.71,1.65-20.1,3.1-2.16,1.31-3.66,5.18-4.35,7.57l36.83-1.51a13.58,13.58,0,0,0-4.19-7.69C245.45,155.11,242.29,154.7,238.5,154.7Z" fill="#093f68"></path><path d="M269.4,222.45,259,166c-.53-.63-.83-1-.83-1a10.29,10.29,0,0,0-7.13-2.87H211.12c-1.09,0-5.11-.52-11.55,4.88-9.3,7.81-22.5,17.62-29.45,24.28l5.94,30c1.17.28,20.22-8.43,20.22-8.43l1.88,9.55Z" fill="#ffbb00"></path><path d="M269.4,223.45H198.16a1,1,0,0,1-1-.8l-1.64-8.31c-18.24,8.31-19.31,8-19.71,8a1,1,0,0,1-.75-.78l-5.94-30a1,1,0,0,1,.29-.91c4.37-4.19,11.27-9.67,17.93-15,4-3.16,8.09-6.43,11.57-9.36,6.29-5.27,10.4-5.15,11.95-5.11h40.18a11.25,11.25,0,0,1,7.82,3.15c.06.06.37.41.9,1a1,1,0,0,1,.22.46l10.39,56.48a1,1,0,0,1-1,1.18Zm-70.42-2H268.2l-10.12-55-.64-.75a9.24,9.24,0,0,0-6.38-2.53H210.83c-1.34,0-4.91-.14-10.62,4.65-3.5,2.94-7.62,6.21-11.61,9.38-6.43,5.11-13.07,10.4-17.39,14.47l5.63,28.5c2.73-.89,11.35-4.64,19-8.15a1,1,0,0,1,1.39.72Z" fill="#093f68"></path><path d="M233.84,167.69H269.6a11,11,0,0,1,11.15,12.51l-4.59,42.25H215.38L220,180.2A14.3,14.3,0,0,1,233.84,167.69Z" fill="#093f68"></path><path d="M276.16,223.45H215.38a1,1,0,0,1-.74-.33,1,1,0,0,1-.25-.77L219,180.09a15.34,15.34,0,0,1,14.86-13.4H269.6a12,12,0,0,1,12.14,13.61l-4.59,42.26A1,1,0,0,1,276.16,223.45Zm-59.66-2h58.76l4.49-41.36a10,10,0,0,0-10.15-11.4H233.84A13.28,13.28,0,0,0,221,180.3Z" fill="#093f68"></path><path d="M239.31,167.69h35.77a11,11,0,0,1,11.14,12.51l-4.59,42.25H220.86l4.59-42.25A14.3,14.3,0,0,1,239.31,167.69Z" fill="#f56132"></path><path d="M281.63,223.45H220.86a1,1,0,0,1-.74-.33,1,1,0,0,1-.25-.77l4.59-42.26a15.33,15.33,0,0,1,14.85-13.4h35.77a12.1,12.1,0,0,1,9.16,4,12.24,12.24,0,0,1,3,9.64l-4.59,42.26A1,1,0,0,1,281.63,223.45Zm-59.66-2h58.77l4.49-41.36a10.27,10.27,0,0,0-2.48-8.09,10.13,10.13,0,0,0-7.67-3.31H239.31a13.29,13.29,0,0,0-12.87,11.61Z" fill="#093f68"></path><path d="M170.12,191.3l-41.74,4.92s-9.9-9.66-12-9.29.14,7.6.14,7.6-7.41-5-8.72-.7-1,12.34.84,14.78,9.49,3.4,22,2.68l44.25,3.52Z" fill="#ffc9b0"></path><path d="M174.88,215.81h-.08l-44.18-3.51c-13,.74-20.6-.29-22.74-3.07s-2.38-11.18-1-15.68a3.26,3.26,0,0,1,2-2.24c1.82-.65,4.3.28,6.06,1.16-.43-1.94-.74-4.41,0-5.63a1.83,1.83,0,0,1,1.25-.88c2.18-.4,8.62,5.46,12.51,9.22L170,190.3a1,1,0,0,1,1.09.8l4.76,23.51a1,1,0,0,1-.23.86A1,1,0,0,1,174.88,215.81Zm-44.25-5.52h.08l42.93,3.41-4.31-21.3-40.83,4.82a1,1,0,0,1-.82-.28c-4.27-4.17-9.59-8.69-11-9-.35.7,0,3.61.86,6.3a1,1,0,0,1-1.52,1.12c-1.67-1.13-4.88-2.71-6.41-2.18a1.26,1.26,0,0,0-.8.94c-1.27,4.18-.89,11.83.68,13.88.78,1,4.39,3.25,21.11,2.29Z" fill="#093f68"></path><path d="M196.28,213.9a1,1,0,0,1-.44-1.89L210.12,205a1,1,0,1,1,.89,1.79l-14.28,7.06A1,1,0,0,1,196.28,213.9Z" fill="#093f68"></path><path d="M127.62,186.29a1,1,0,0,1-1-.68l-10.13-29.88a1,1,0,1,1,1.89-.64l9.9,29.17,20.43-.76a1,1,0,0,1,1,1,1,1,0,0,1-1,1l-21.17.79Z" fill="#dfeaef"></path><path d="M135.28,182.78a1,1,0,0,1-.94-.64l-4.64-12.27a1,1,0,1,1,1.87-.71l4.64,12.27a1,1,0,0,1-.58,1.29A1.07,1.07,0,0,1,135.28,182.78Z" fill="#dfeaef"></path><rect x="128.38" y="195.1" width="6.9" height="15.81" fill="#ffbb00"></rect><path d="M135.28,211.91h-6.9a1,1,0,0,1-1-1V195.1a1,1,0,0,1,1-1h6.9a1,1,0,0,1,1,1v15.81A1,1,0,0,1,135.28,211.91Zm-5.9-2h4.9V196.1h-4.9Z" fill="#093f68"></path><circle cx="131.83" cy="202.79" r="3.8" fill="#fff"></circle><path d="M131.83,207.59a4.8,4.8,0,1,1,4.8-4.8A4.8,4.8,0,0,1,131.83,207.59Zm0-7.6a2.8,2.8,0,1,0,2.8,2.8A2.8,2.8,0,0,0,131.83,200Z" fill="#093f68"></path><path d="M184.16,189a8.06,8.06,0,0,1-1.77-.19,9.06,9.06,0,0,1-5.41-3.73,1,1,0,1,1,1.7-1.06,7.09,7.09,0,0,0,4.16,2.84c2,.44,4.28-.16,6.7-1.76a7.32,7.32,0,0,0,3.47-4.75c.6-3.3-1.63-6.41-1.66-6.44a1,1,0,0,1,1.62-1.19c.11.16,2.75,3.81,2,8a9.22,9.22,0,0,1-4.35,6.09A11.76,11.76,0,0,1,184.16,189Z" fill="#093f68"></path><path d="M183.42,218.56a1,1,0,0,1-.95-.69l-9.67-29.55a1,1,0,0,1,.64-1.26,1,1,0,0,1,1.26.64l9.67,29.55a1,1,0,0,1-.63,1.26A1.19,1.19,0,0,1,183.42,218.56Z" fill="#093f68"></path><path d="M160.62,123.78h-53.3a1,1,0,0,1-1-1V79.15a1,1,0,0,1,1-1h53.3a1,1,0,0,1,1,1v43.63A1,1,0,0,1,160.62,123.78Zm-52.3-2h51.3V80.15h-51.3Z" fill="#dfeaef"></path><path d="M141,110.68H119a1,1,0,0,1-1-1v-22a1,1,0,0,1,1-1h22a1,1,0,0,1,1,1v22A1,1,0,0,1,141,110.68Zm-21-2h20v-20H120Z" fill="#dfeaef"></path><path d="M140.67,117.16A13.13,13.13,0,1,1,153.79,104,13.13,13.13,0,0,1,140.67,117.16Zm0-24.25A11.13,11.13,0,1,0,151.79,104,11.14,11.14,0,0,0,140.67,92.91Z" fill="#dfeaef"></path><path d="M308.59,153.21H274.24a1,1,0,0,1-1-1V107.33a1,1,0,0,1,1-1h34.35a1,1,0,0,1,1,1v44.88A1,1,0,0,1,308.59,153.21Zm-33.35-2h32.35V108.33H275.24Z" fill="#dfeaef"></path><path d="M301.77,147.53H280.82a1,1,0,0,1-.83-.45,1,1,0,0,1-.09-.93l10.47-25.61a1,1,0,0,1,.93-.62,1,1,0,0,1,.92.62l10.48,25.61a1,1,0,0,1-.1.93A1,1,0,0,1,301.77,147.53Zm-19.46-2h18l-9-22Z" fill="#dfeaef"></path><path d="M299,128.47H280.82a1,1,0,0,1-1-1V112.55a1,1,0,0,1,1-1H299a1,1,0,0,1,1,1v14.92A1,1,0,0,1,299,128.47Zm-17.14-2H298V113.55H281.82Z" fill="#dfeaef"></path><path d="M284.79,94.88H263.11a1,1,0,0,1-1-1V77.55a1,1,0,0,1,1-1h21.68a1,1,0,0,1,1,1V93.88A1,1,0,0,1,284.79,94.88Zm-20.68-2h19.68V78.55H264.11Z" fill="#dfeaef"></path><path d="M269.4,88.68a1,1,0,0,1-.91-.6,1,1,0,0,1,.51-1.32l4.55-2a1,1,0,0,1,.95.09l2.14,1.43L280,81.48a1,1,0,1,1,1.64,1.14l-3.92,5.63a1,1,0,0,1-1.37.26l-2.51-1.67-4,1.76A.92.92,0,0,1,269.4,88.68Z" fill="#dfeaef"></path></svg>